<svg width="512" height="512" viewBox="0 0 512 512" fill="none" xmlns="http://www.w3.org/2000/svg">
<rect width="512" height="512" fill="#1E1E1E" style="fill:#1E1E1E;fill:color(display-p3 0.1176 0.1176 0.1176);fill-opacity:1;"/>
<path d="M192.213 469.445L61.991 256.534L192.213 43.6235V469.445ZM75.1628 256.215L182.932 439.104V73.3276L75.1628 256.215Z" fill="white" style="fill:white;fill-opacity:1;"/>
<path d="M274.238 469.445L144.016 256.534L274.238 43.6235V469.445ZM157.188 256.215L264.957 439.104V73.3276L157.188 256.215Z" fill="#CD0707" style="fill:#CD0707;fill:color(display-p3 0.8039 0.0275 0.0275);fill-opacity:1;"/>
<path d="M354.466 469.445L224.244 256.534L354.466 43.6235V469.445ZM237.416 256.215L345.186 439.104V73.3276L237.416 256.215Z" fill="white" style="fill:white;fill-opacity:1;"/>
<path d="M431.102 469.445L300.88 256.534L431.102 43.6235V469.445ZM314.052 256.215L421.823 439.104V73.3276L314.052 256.215Z" fill="#CD0707" style="fill:#CD0707;fill:color(display-p3 0.8039 0.0275 0.0275);fill-opacity:1;"/>
</svg>
